<?xml version="1.0"?>
<svg xmlns="http://www.w3.org/2000/svg" xmlns:xlink="http://www.w3.org/1999/xlink" version="1.1" id="Layer_1" x="0px" y="0px" viewBox="0 0 511.896 511.896" style="enable-background:new 0 0 511.896 511.896;" xml:space="preserve" width="512px" height="512px" class=""><g><circle style="fill:#006775" cx="255.948" cy="255.948" r="255.948" data-original="#006775" class=""/><path style="fill:#055661" d="M449.675,423.395l-1.143,1.247l-0.208,0.312L278.177,240.886l130.986,31.059l-28.669-136.18  L511.377,272.88c-3.74,57.443-26.384,109.692-61.806,150.619L449.675,423.395z M440.846,433.159  c-0.935,1.039-1.974,1.974-2.909,3.012l-1.662,1.662c-0.935,0.935-1.974,1.87-2.909,2.805l-1.35,1.247  c-1.039,1.039-2.181,2.077-3.22,3.012l-1.35,1.247c-1.039,0.935-2.078,1.87-3.116,2.805l-1.454,1.246  c-1.039,0.935-2.078,1.766-3.22,2.701l-1.35,1.143c-1.143,0.935-2.181,1.766-3.324,2.701l-1.35,1.039  c-1.039,0.831-2.181,1.662-3.324,2.493l-1.974,1.454c-1.039,0.727-2.078,1.454-3.012,2.181l-1.87,1.35  c-1.039,0.727-1.974,1.454-3.012,2.077l-2.285,1.558c-1.039,0.727-2.078,1.35-3.22,2.077l-1.87,1.143  c-1.039,0.623-2.078,1.35-3.116,1.974l-1.974,1.246c-1.039,0.623-2.078,1.246-3.22,1.87l-2.077,1.246  c-1.039,0.519-1.974,1.143-3.012,1.662c-1.039,0.519-1.974,1.143-3.012,1.662l-2.389,1.246c-1.039,0.519-2.078,1.039-3.116,1.558  l-2.285,1.143c-1.143,0.519-2.181,1.039-3.324,1.558l-2.078,1.039c-1.143,0.519-2.181,1.039-3.324,1.558l-2.493,1.143  c-1.039,0.415-2.078,0.831-3.116,1.35l-3.012,1.247c-1.039,0.415-2.181,0.831-3.22,1.246l-2.389,0.935  c-1.143,0.415-2.181,0.831-3.324,1.246l-2.597,0.935c-1.247,0.415-2.493,0.831-3.636,1.247l-1.766,0.623  c-1.454,0.415-2.909,0.935-4.363,1.35l-1.454,0.415c-1.35,0.416-2.805,0.831-4.155,1.143l-2.285,0.623  c-1.247,0.312-2.493,0.623-3.74,0.935h-0.208l-2.909,0.727h-0.104l-2.805,0.623l-2.909,0.623h-0.208  c-1.454,0.312-2.805,0.623-4.259,0.831l-1.766,0.312c-1.454,0.312-2.805,0.519-4.259,0.727l-1.974,0.312  c-1.35,0.208-2.805,0.415-4.259,0.623l-2.078,0.312c-1.35,0.208-2.701,0.312-4.051,0.519l-2.389,0.312  c-1.35,0.104-2.597,0.312-3.947,0.415c-1.143,0.104-2.285,0.208-3.324,0.312l0,0L118.21,351.617  c4.051-15.685,31.682-16.828,41.966-6.025c51.522,53.807,88.917,84.97,110.315,69.7l-81.438-89.54l78.218,29.916l43.628,28.773  L150.619,210.555l50.379-37.914l240.055,260.311L440.846,433.159z" data-original="#055661" class="" data-old_color="#055661"/><path style="fill:#FFFFFF" d="M294.693,383.195c0.623,18.905-12.361,39.68-38.642,40.303  c-32.928,0.623-74.063-52.145-102.94-75.725c-9.245-7.583-26.073-5.817-35.11,3.947l-6.544-5.401  c14.231-15.374,32.928-17.243,49.652-4.986c25.657,20.879,70.22,73.544,95.669,72.816c20.048-0.727,28.773-19.217,27.215-31.474  c3.636,0.415,7.271,0.623,10.803,0.519H294.693z" data-original="#FFD630" class="active-path" data-old_color="#FFD630"/><path style="fill:#FFFFFF" d="M154.254,130.363c-21.294,14.231-34.902,35.214-33.759,60.248  c3.324,78.322,100.551,192.273,175.445,195.597c18.282,0.831,36.356-9.037,50.068-22.853c17.451-8.206-50.691-78.114-63.468-72.193  c-10.699,6.232-20.048,15.581-27.008,25.657c-17.867-12.465-64.299-69.492-72.92-88.709c11.219-4.882,22.229-12.257,30.332-21.606  C221.15,195.077,165.681,114.886,154.254,130.363z" data-original="#E6E6E6" class="" data-old_color="#E6E6E6"/><g>
	<path style="fill:#FFFFFF" d="M360.966,260.519c1.039-2.805,1.87-5.713,2.597-8.622c6.129-24.722,2.078-50.068-11.219-70.843   c-13.296-20.879-34.694-35.11-59.624-39.888c-2.909-0.519-5.921-1.039-8.933-1.246l3.428-16.828c3.22,0.312,6.44,0.831,9.66,1.454   c29.501,5.609,54.638,22.437,70.427,47.055s20.463,54.534,13.192,83.619c-0.831,3.116-1.662,6.336-2.805,9.349l-16.724-3.947   V260.519z" data-original="#00CC96" class="" data-old_color="#00CC96"/>
	<path style="fill:#FFFFFF" d="M332.712,253.871c0.623-1.974,1.247-3.843,1.766-5.817c4.363-17.555,1.558-35.629-7.998-50.483   c-9.453-14.854-24.722-25.034-42.485-28.358c-1.974-0.415-4.051-0.623-6.025-0.831l3.428-16.828   c2.285,0.208,4.57,0.623,6.752,1.039c22.333,4.259,41.342,17.036,53.288,35.629c11.946,18.594,15.477,41.238,9.972,63.26   c-0.519,2.181-1.143,4.467-1.87,6.544l-16.724-3.947L332.712,253.871z" data-original="#00CC96" class="" data-old_color="#00CC96"/>
	<path style="fill:#FFFFFF" d="M305.6,247.43l0.208-0.831c2.805-11.322,0.935-22.956-5.194-32.513s-15.893-16.101-27.319-18.282   l-0.831-0.208l3.428-16.828l1.662,0.312c15.893,3.116,29.604,12.153,38.122,25.449s11.011,29.501,7.167,45.29l-0.415,1.558   l-16.724-3.947H305.6z" data-original="#00CC96" class="" data-old_color="#00CC96"/>
	<path style="fill:#FFFFFF" d="M278.177,240.886c-0.208-3.636-1.246-7.271-3.324-10.387c-1.974-3.116-4.778-5.609-8.102-7.375   l3.532-17.347c8.102,2.701,14.854,7.998,19.425,15.166c4.57,7.167,6.44,15.477,5.609,23.995l-17.243-4.051H278.177z" data-original="#00CC96" class="" data-old_color="#00CC96"/>
	<path style="fill:#FFFFFF" d="M392.44,267.998c0.935-2.805,1.662-5.609,2.389-8.414c8.31-33.448,2.909-67.83-15.166-96.084   c-18.074-28.254-46.952-47.575-80.919-54.015c-2.909-0.519-5.713-1.039-8.622-1.35l3.428-16.828   c3.116,0.416,6.233,0.935,9.349,1.454c38.33,7.375,71.154,29.189,91.618,61.182c20.463,31.993,26.592,70.947,17.243,108.861   c-0.727,3.012-1.662,6.129-2.597,9.141L392.44,267.998z" data-original="#00CC96" class="" data-old_color="#00CC96"/>
	<path style="fill:#FFFFFF" d="M263.219,240.367c5.505,8.518,3.012,19.84-5.609,25.346c-8.518,5.505-19.84,3.012-25.346-5.609   c-5.505-8.518-3.012-19.84,5.609-25.346C246.392,229.252,257.714,231.745,263.219,240.367z" data-original="#00CC96" class="" data-old_color="#00CC96"/>
</g></g> </svg>
