<?xml version="1.0"?>
<svg xmlns="http://www.w3.org/2000/svg" id="Capa_1" enable-background="new 0 0 512 512" height="512px" viewBox="0 0 512 512" width="512px" class=""><g><g><g><g><g><g><g><g><g><circle cx="256" cy="256" fill="#fe6a16" r="256" data-original="#FE6A16" class="" style="fill:#006775" data-old_color="#fe6a16"/></g></g></g></g></g></g></g><path d="m512 256c0-4.125-.098-8.226-.291-12.303l-153.482-153.483-41.004 14.13-184.208 286.528 121.121 121.121c.621.004 1.242.007 1.864.007 141.385 0 256-114.615 256-256z" fill="#e53d03" data-original="#E53D03" class="active-path" style="fill:#05373E" data-old_color="#e53d03"/><g><g><g><g><g><g><g><circle cx="256" cy="256.551" fill="#fff" r="161.455" data-original="#FFF" class=""/></g></g></g></g></g></g></g><g><g><g><g><g><g><g><path d="m417.455 256.551c0-89.129-72.221-161.388-161.334-161.454v322.907c89.113-.065 161.334-72.324 161.334-161.453z" fill="#e9edf5" data-original="#E9EDF5" class=""/></g></g></g></g></g></g></g><g><g><g><g><g><g><g><path d="m256 438.758c-100.47 0-182.207-81.738-182.207-182.207s81.737-182.207 182.207-182.207h69.279v30h-69.279c-83.927 0-152.207 68.28-152.207 152.207s68.28 152.207 152.207 152.207 152.207-68.28 152.207-152.207h30c0 100.469-81.737 182.207-182.207 182.207z" fill="#ffce00" data-original="#FFCE00" class=""/></g></g></g></g></g></g></g><path d="m438.207 256.551h-30c0 83.887-68.215 152.14-152.086 152.205v30c100.414-.065 182.086-81.776 182.086-182.205z" fill="#fdba12" data-original="#FDBA12" class=""/><g><g><path d="m279.884 345.095-41.353-92.045 52.633-49.331 19.832 21.159-37.527 35.173 32.868 73.159z" fill="#555a66" data-original="#555A66" class=""/></g></g><g><g><path d="m310.996 224.878-19.832-21.159-35.043 32.845v55.637l23.763 52.894 26.453-11.885-32.868-73.159z" fill="#333940" data-original="#333940" class=""/></g></g><g><g><g><path d="m241.5 118.091h29v43.287h-29z" fill="#cdd2e1" data-original="#CDD2E1" class=""/></g></g><g><g><path d="m256.121 118.091h14.379v43.287h-14.379z" fill="#afb4c8" data-original="#AFB4C8" class=""/></g></g><g><g><path d="m241.5 351.724h29v43.287h-29z" fill="#cdd2e1" data-original="#CDD2E1" class=""/></g></g><g><g><path d="m256.121 351.724h14.379v43.287h-14.379z" fill="#afb4c8" data-original="#AFB4C8" class=""/></g></g></g><g><g><g><path d="m351.173 242.051h43.287v29h-43.287z" fill="#afb4c8" data-original="#AFB4C8" class=""/></g></g><g><g><path d="m117.541 242.051h43.286v29h-43.286z" fill="#cdd2e1" data-original="#CDD2E1" class=""/></g></g></g><g><g><g><path d="m158.899 152.306h29v43.286h-29z" fill="#cdd2e1" transform="matrix(.707 -.707 .707 .707 -72.214 173.557)" data-original="#CDD2E1" class=""/></g></g><g><g><path d="m324.101 317.509h29v43.287h-29z" fill="#afb4c8" transform="matrix(.707 -.707 .707 .707 -140.643 338.765)" data-original="#AFB4C8" class=""/></g></g></g><g><g><g><path d="m316.958 159.449h43.287v29h-43.287z" fill="#afb4c8" transform="matrix(.707 -.707 .707 .707 -23.827 290.376)" data-original="#AFB4C8" class=""/></g></g><g><g><path d="m151.755 324.652h43.287v29h-43.287z" fill="#cdd2e1" transform="matrix(.707 -.707 .707 .707 -189.03 221.946)" data-original="#CDD2E1" class=""/></g></g></g><path d="m297.431 29.418-21.213 21.213 23.713 23.713h-43.81v30h45.55l-25.453 25.453 21.213 21.213 60.796-60.796z" fill="#fdba12" data-original="#FDBA12" class=""/></g></g> </svg>
