<?xml version="1.0" encoding="iso-8859-1"?>
<!-- Generator: Adobe Illustrator 19.0.0, SVG Export Plug-In . SVG Version: 6.00 Build 0)  -->
<svg version="1.1" id="Capa_1" xmlns="http://www.w3.org/2000/svg" xmlns:xlink="http://www.w3.org/1999/xlink" x="0px" y="0px"
	 viewBox="0 0 468.293 468.293" style="enable-background:new 0 0 468.293 468.293;" xml:space="preserve">
<path style="fill:#2F4859;" d="M467.703,53.741c0-9.662-7.833-17.495-17.496-17.495H17.496C7.833,36.246,0,44.079,0,53.741v206.692
	v41.436h467.703v-41.436V53.741z"/>
<path style="fill:#EBF0F3;" d="M0,301.869v30.146c0,9.934,7.843,17.987,17.518,17.987h433.256c9.675,0,17.518-8.054,17.518-17.987
	v-30.146H0z"/>
<g>
	<rect x="28.347" y="62.732" style="fill:#64798A;" width="411.011" height="239.141"/>
	<circle style="fill:#64798A;" cx="233.853" cy="325.938" r="15.472"/>
</g>
<path style="fill:#E1E6E9;" d="M319.605,196.333c-0.884-1.52-1.706-3.09-2.469-4.701
	C317.899,193.244,318.721,194.813,319.605,196.333z"/>
<path id="SVGCleanerId_0" style="fill:#2F4859;" d="M174.502,350.003c0,0,26.323,27.021,19.456,56.535h31.164l-20.864-56.535
	H174.502z"/>
<g>
	<path id="SVGCleanerId_0_1_" style="fill:#2F4859;" d="M174.502,350.003c0,0,26.323,27.021,19.456,56.535h31.164l-20.864-56.535
		H174.502z"/>
</g>
<path style="fill:#2F4859;" d="M293.791,350.003c0,0-26.323,27.021-19.456,56.535H243.17l20.864-56.535H293.791z"/>
<rect x="153.725" y="406.54" style="fill:#D5D6DB;" width="160.812" height="25.506"/>
<path style="fill:#F6C358;" d="M287.168,191.273H180.534v-51.39c0-32.932,23.918-59.724,53.314-59.724
	c29.403,0,53.321,26.792,53.321,59.724V191.273z M199.134,170.439h69.435v-30.556c0-21.445-15.577-38.889-34.721-38.889
	s-34.714,17.445-34.714,38.889V170.439z"/>
<ellipse style="fill:#44C4A1;" cx="233.877" cy="209.859" rx="74.59" ry="74.59"/>
<path style="fill:#3A556A;" d="M248.111,190.756c0-8.822-6.384-15.973-14.259-15.973c-7.876,0-14.26,7.152-14.26,15.973
	c0,3.398,0.963,6.535,2.578,9.124l-2.578,45.045h28.519l-2.577-45.046C247.149,197.29,248.111,194.154,248.111,190.756z"/>
<g>
</g>
<g>
</g>
<g>
</g>
<g>
</g>
<g>
</g>
<g>
</g>
<g>
</g>
<g>
</g>
<g>
</g>
<g>
</g>
<g>
</g>
<g>
</g>
<g>
</g>
<g>
</g>
<g>
</g>
</svg>
